<?xml version="1.0" encoding="utf-8"?>
<!-- Generator: Adobe Illustrator 19.0.0, SVG Export Plug-In . SVG Version: 6.00 Build 0)  -->
<svg version="1.1" id="Layer_1" xmlns="http://www.w3.org/2000/svg" xmlns:xlink="http://www.w3.org/1999/xlink" x="0px" y="0px"
	 viewBox="16 24.7 165.9 14.3" style="enable-background:new 16 24.7 165.9 14.3;" xml:space="preserve">
<style type="text/css">
	.st0{fill:#FFFFFF;}
</style>
<g id="Layer_2">
</g>
<g id="Layer_1_1_">
	<title>freeCodeCamp logo</title>
	<g id="XMLID_19_">
		<path id="XMLID_32_" class="st0" d="M174,26.2c-0.1,0.1-0.2,0.1-0.2,0.1c-0.4,0.3-0.5,0.6-0.3,1.1c0.1,0.1,0.1,0.2,0.1,0.3
			c0.3,0.4,0.3,0.8,0.1,1.2c-0.1,0.3-0.3,0.6-0.5,0.8c-0.1,0.1-0.1,0.1-0.2,0.1c-0.4,0.2-0.6,0.5-0.8,1c-0.1,0.3,0,0.6,0.2,0.9
			c0,0,0,0.1,0.1,0.1l0,0c-0.5-0.3-1.1-1.6-0.4-2.7c0,0-0.1,0-0.1-0.1c-0.5,0.8-0.5,2,0.4,2.8h-0.1c-0.5-0.3-1-0.7-1.3-1.3
			c-0.3-0.7-0.4-1.4-0.1-2.1c0.4-1.1,1.2-1.7,2.3-1.9C173.4,26.2,173.7,26.2,174,26.2z M172.1,27.9c0,0.1,0,0.2,0,0.3
			c0,0.1,0,0.1-0.1,0.1c-0.1,0.1-0.2,0.1-0.3,0.2c0.1,0,0.2,0.1,0.3,0.1c0.1,0,0.1,0,0.1,0.1c0,0.1,0.1,0.2,0.1,0.3
			c0.1-0.1,0.1-0.2,0.2-0.2c0-0.1,0.1-0.1,0.1-0.1c0.1,0,0.2,0,0.3,0.1c-0.1-0.1-0.1-0.2-0.2-0.2c-0.1-0.1-0.1-0.1,0-0.1
			c0.1-0.1,0.1-0.2,0.1-0.3c-0.1,0.1-0.2,0.1-0.2,0.1c-0.1,0.1-0.2,0.1-0.2-0.1C172.2,28,172.2,28,172.1,27.9z"/>
		<path id="XMLID_29_" class="st0" d="M167.8,28.8c0.1,0.1,0.1,0.2,0.1,0.3c0.2,0.4,0.5,0.6,1,0.6c0.1,0,0.3-0.1,0.4-0.1
			c0.3-0.1,0.6,0.1,0.8,0.2c0.3,0.2,0.5,0.4,0.7,0.8c0.1,0.1,0.1,0.2,0.1,0.4c0.1,0.5,0.4,0.9,0.9,1c0.2,0.1,0.4,0.1,0.8,0
			c-0.2,0.2-0.9,0.4-1.4,0.3c-0.5-0.1-1-0.3-1.3-0.8l-0.1,0.1c0.4,0.4,0.8,0.6,1.3,0.8c0.5,0.1,1,0.1,1.5-0.2l0,0
			c-0.2,0.1-0.3,0.3-0.5,0.4c-0.5,0.4-1.1,0.5-1.7,0.5c-0.6-0.1-1.1-0.3-1.5-0.6c-0.6-0.5-1-1.1-1.1-1.9
			C167.5,29.8,167.6,29.3,167.8,28.8L167.8,28.8z M169.7,30.6c-0.1,0.1-0.2,0.1-0.3,0.1c0,0-0.1,0-0.1,0c-0.1-0.1-0.2-0.1-0.2-0.2
			c0,0.1,0,0.2,0,0.3c0,0.1,0,0.1-0.1,0.1c-0.1,0.1-0.2,0.1-0.2,0.1c0.1,0,0.2,0.1,0.3,0.1c0.1,0,0.1,0.1,0.1,0.1
			c0,0.1,0.1,0.2,0.1,0.3c0.1-0.1,0.1-0.2,0.2-0.2l0.1-0.1c0.1,0,0.2,0,0.3,0.1c-0.1-0.1-0.1-0.2-0.2-0.2c-0.1-0.1-0.1-0.1,0-0.1
			C169.7,30.8,169.7,30.7,169.7,30.6z"/>
		<path id="XMLID_26_" class="st0" d="M178.3,31.2c-0.1-0.1-0.1-0.1-0.2-0.1c-0.4-0.3-0.9-0.3-1.2,0.1c-0.1,0.1-0.1,0.1-0.1,0.1
			c-0.2,0.3-0.4,0.4-0.8,0.4c-0.4,0.1-0.8,0-1.1-0.2c-0.1-0.1-0.2-0.1-0.3-0.2c-0.3-0.3-0.6-0.4-1-0.4c-0.4,0-0.6,0.2-0.9,0.5
			l-0.1,0.1c0.2-0.7,1.2-1.6,2.5-1.2v-0.1c-0.8-0.3-2.1,0.1-2.6,1.2c0.1-0.2,0.1-0.3,0.1-0.4c0.2-0.7,0.6-1.3,1.3-1.6
			c0.5-0.3,1-0.4,1.6-0.3c0.8,0.1,1.4,0.4,2,0.9C177.9,30.3,178.1,30.7,178.3,31.2L178.3,31.2z M176,30c-0.1,0.1-0.2,0.1-0.3,0.1
			c-0.1,0-0.1,0-0.1,0c-0.1-0.1-0.1-0.1-0.2-0.2c0,0.1,0,0.2,0,0.3c0,0.1,0,0.1-0.1,0.1s-0.2,0.1-0.2,0.1c0.1,0,0.2,0.1,0.3,0.1
			c0.1,0,0.1,0.1,0.1,0.1c0,0.1,0.1,0.2,0.1,0.3c0.1-0.1,0.1-0.1,0.1-0.2c0.1-0.1,0.1-0.1,0.2-0.1s0.2,0,0.2,0
			c-0.1-0.1-0.1-0.2-0.2-0.2c-0.1-0.1-0.1-0.1,0-0.1C176,30.3,176,30.1,176,30z"/>
		<path id="XMLID_23_" class="st0" d="M172.8,31.7c0.8,0,1.9,0.8,2,2h0.1c0-0.2-0.1-0.4-0.1-0.6c-0.3-0.9-0.9-1.3-1.8-1.5
			c0.2,0,0.4-0.1,0.5-0.1c0.4,0,0.8,0.1,1.1,0.3c0.7,0.3,1.2,0.9,1.4,1.6c0.4,1.3,0,2.7-1.1,3.4c-0.1,0-0.1,0.1-0.1,0.1
			c0-0.1,0-0.1,0-0.1c0.2-0.5,0.1-1.1-0.5-1.3c-0.1-0.1-0.2-0.1-0.3-0.1c-0.2-0.1-0.4-0.3-0.5-0.5c-0.2-0.4-0.2-0.7-0.1-1.1
			c0-0.1,0.1-0.2,0.1-0.3c0.2-0.4,0.2-0.8,0-1.2C173.4,32,173.1,31.8,172.8,31.7C172.9,31.8,172.9,31.8,172.8,31.7z M175.2,34.4
			c-0.1-0.1-0.1-0.2-0.2-0.2c0,0,0-0.1,0-0.1c0.1-0.1,0.1-0.2,0.1-0.3c-0.1,0.1-0.2,0.1-0.3,0.1c-0.1,0-0.1,0-0.1,0
			c-0.1-0.1-0.1-0.1-0.2-0.2c0,0.1,0,0.2,0,0.3c0,0.1,0,0.1-0.1,0.1c-0.1,0.1-0.2,0.1-0.3,0.2c0.1,0,0.2,0.1,0.3,0.1
			c0.1,0,0.1,0.1,0.1,0.1c0,0.1,0.1,0.2,0.1,0.3c0.1-0.1,0.1-0.2,0.2-0.2l0.1-0.1C175,34.4,175.1,34.4,175.2,34.4z"/>
		<path id="XMLID_20_" class="st0" d="M172.7,32c0.3,0.8-0.1,2-1.3,2.5v0.1c0.5-0.2,0.9-0.5,1.1-1C172.8,33,172.8,32.5,172.7,32
			L172.7,32c0.1,0.2,0.2,0.4,0.3,0.6c0.3,0.9,0.1,1.7-0.5,2.4c-0.5,0.6-1.1,0.9-1.8,1.1c-0.9,0.2-1.7-0.1-2.4-0.6l0,0l0,0h0.1
			c0.5,0.1,1-0.3,1.1-0.8c0-0.1,0-0.3,0.1-0.4c0.1-0.3,0.3-0.5,0.5-0.8c0.3-0.2,0.6-0.3,1-0.3c0.2,0,0.3,0.1,0.5,0.1
			c0.5,0,1-0.3,1.1-0.8c0.1-0.1,0.1-0.3,0.1-0.4C172.7,32,172.7,32,172.7,32z M170.4,34.6c0.1,0,0.2,0.1,0.3,0.1
			c0.1,0,0.1,0.1,0.1,0.1c0,0.1,0.1,0.2,0.1,0.3c0.1-0.1,0.1-0.2,0.2-0.2c0-0.1,0.1-0.1,0.1-0.1c0.1,0,0.2,0,0.3,0.1
			c-0.1-0.1-0.1-0.2-0.2-0.2c-0.1-0.1-0.1-0.1,0-0.1c0.1-0.1,0.1-0.2,0.1-0.3c-0.1,0.1-0.2,0.1-0.3,0.1c-0.1,0-0.1,0-0.1,0
			c-0.1-0.1-0.1-0.1-0.2-0.2c0,0.1,0,0.2,0,0.3c0,0,0,0.1-0.1,0.1C170.6,34.5,170.5,34.5,170.4,34.6z"/>
	</g>
	<g>
		<path class="st0" d="M18.3,29.6h-0.9c-0.3,0-0.5-0.2-0.5-0.4s0.2-0.4,0.5-0.4h0.9v-0.8c0-1.4,0.7-2.1,2.1-2.1
			c0.6,0,1.1,0.1,1.4,0.3c0.5,0.3,0.8,0.8,0.8,1.3c0,0.4-0.2,0.5-0.4,0.5c-0.2,0-0.3-0.1-0.4-0.3c-0.1-0.4-0.2-0.6-0.3-0.7
			c-0.2-0.2-0.5-0.3-1-0.3c-0.9,0-1.3,0.4-1.3,1.3v0.8h1.7c0.4,0,0.5,0.2,0.5,0.4c0,0.3-0.2,0.4-0.5,0.4h-1.7v5.3
			c0,0.3-0.2,0.5-0.4,0.5c-0.3,0-0.4-0.2-0.4-0.5C18.3,34.9,18.3,29.6,18.3,29.6z"/>
		<path class="st0" d="M25.9,34.4v-4.8h-1.2c-0.3,0-0.5-0.2-0.5-0.4c0-0.3,0.2-0.4,0.5-0.4h1.7c0.3,0,0.4,0.3,0.4,0.7
			c0.5-0.6,1.1-0.9,1.7-0.9c0.5,0,0.9,0.2,1.1,0.4c0.3,0.3,0.4,0.7,0.4,1.2c0,0.3-0.2,0.5-0.4,0.5c-0.2,0-0.3-0.1-0.4-0.3
			C29,30,29,29.8,28.9,29.7c-0.1-0.2-0.3-0.3-0.6-0.3c-0.3,0-0.6,0.1-0.9,0.4c-0.2,0.1-0.4,0.4-0.7,0.8v3.9h1.6
			c0.3,0,0.5,0.1,0.5,0.4c0,0.3-0.2,0.4-0.5,0.4h-3.6c-0.3,0-0.5-0.2-0.5-0.4c0-0.3,0.2-0.4,0.5-0.4h1.2V34.4z"/>
		<path class="st0" d="M32.2,32.2v0.9c0,1,0.7,1.5,2.1,1.4c0.5,0,0.9-0.1,1.2-0.2c0.2-0.1,0.4-0.2,0.9-0.5c0.3-0.2,0.4-0.4,0.5-0.4
			c0.2,0,0.4,0.1,0.4,0.4c0,0.3-0.2,0.5-0.5,0.8c-0.5,0.4-1.4,0.6-2.5,0.6c-1.9,0-2.9-0.8-2.9-2.3v-2.3c0-0.5,0.2-1,0.6-1.4
			c0.5-0.5,1.3-0.8,2.4-0.8c1.9,0,2.8,1,2.8,2.8c0,0.5-0.2,0.7-0.5,0.7L32.2,32.2L32.2,32.2z M32.2,31.3h4.1c0-1.2-0.7-1.9-2.1-1.9
			c-0.5,0-1,0.1-1.4,0.3c-0.4,0.3-0.6,0.7-0.6,1.1V31.3z"/>
		<path class="st0" d="M39.5,32.2v0.9c0,1,0.7,1.5,2.1,1.4c0.5,0,0.9-0.1,1.2-0.2c0.2-0.1,0.4-0.2,0.9-0.5c0.3-0.2,0.4-0.4,0.5-0.4
			c0.2,0,0.4,0.1,0.4,0.4c0,0.3-0.2,0.5-0.5,0.8c-0.5,0.4-1.4,0.6-2.5,0.6c-1.9,0-2.9-0.8-2.9-2.3v-2.3c0-0.5,0.2-1,0.6-1.4
			c0.5-0.5,1.3-0.8,2.4-0.8c1.9,0,2.8,1,2.8,2.8c0,0.5-0.2,0.7-0.5,0.7L39.5,32.2L39.5,32.2z M39.5,31.3h4.1c0-1.2-0.7-1.9-2.1-1.9
			c-0.5,0-1,0.1-1.4,0.3c-0.4,0.3-0.6,0.6-0.6,1V31.3z"/>
		<path class="st0" d="M46,32.7v-3.6c0-1.9,1-2.8,3-2.8c0.8,0,1.4,0.2,2,0.5c0.6,0.4,0.9,1,0.9,1.8c0,0.4-0.2,0.5-0.4,0.5
			c-0.2,0-0.4-0.2-0.4-0.5c-0.1-0.3-0.2-0.5-0.3-0.8c-0.3-0.4-0.8-0.7-1.7-0.7c-0.8,0-1.3,0.2-1.6,0.5c-0.3,0.3-0.4,0.9-0.4,1.7v3
			c0,0.8,0.2,1.3,0.5,1.7c0.3,0.4,0.9,0.6,1.6,0.6c1.1,0,1.8-0.4,1.9-1.2c0.1-0.3,0.1-0.4,0.1-0.4c0.1-0.2,0.2-0.3,0.3-0.3
			c0.3,0,0.4,0.2,0.4,0.5c0,0.7-0.3,1.3-0.9,1.7c-0.5,0.3-1.1,0.5-1.9,0.5c-0.9,0-1.7-0.2-2.2-0.6S46,33.6,46,32.7z"/>
		<path class="st0" d="M53.2,33.2v-2.4c0-1.4,1-2.2,2.9-2.2c1.9,0,2.9,0.8,2.9,2.2v2.4c0,1.4-1,2.2-2.9,2.2
			C54.1,35.4,53.2,34.7,53.2,33.2z M58.2,33.2v-2.4c0-0.9-0.7-1.3-2.1-1.3c-1.3,0-2,0.4-2,1.3v2.4c0,0.9,0.7,1.3,2.1,1.3
			C57.5,34.5,58.2,34.1,58.2,33.2z"/>
		<path class="st0" d="M65.4,34.6c-0.4,0.3-0.8,0.5-1,0.6c-0.3,0.1-0.7,0.2-1.2,0.2c-0.8,0-1.4-0.2-1.9-0.5
			c-0.5-0.4-0.9-0.9-0.9-1.7v-2.5c0-0.7,0.3-1.3,0.8-1.7c0.5-0.3,1.1-0.5,1.8-0.5c0.5,0,0.9,0.1,1.2,0.2c0.3,0.1,0.6,0.3,1,0.6v-3
			c0-0.4,0.1-0.6,0.4-0.6c0.3,0,0.4,0.2,0.4,0.6v8.5c0,0.3-0.1,0.4-0.4,0.4c-0.2,0-0.3-0.1-0.3-0.3C65.4,35,65.4,34.8,65.4,34.6z
			 M65.4,33.6v-3.3c-0.4-0.3-0.8-0.5-1-0.6c-0.3-0.2-0.7-0.2-1.1-0.2c-0.5,0-1,0.1-1.3,0.3c-0.4,0.3-0.6,0.6-0.6,1.1v2.3
			c0,0.5,0.2,0.9,0.6,1.1c0.3,0.2,0.8,0.3,1.3,0.3c0.4,0,0.8-0.1,1.1-0.2C64.7,34.2,65,34,65.4,33.6z"/>
		<path class="st0" d="M68.6,32.2v0.9c0,1,0.7,1.5,2.1,1.4c0.5,0,0.9-0.1,1.2-0.2c0.2-0.1,0.4-0.2,0.9-0.5c0.3-0.2,0.4-0.4,0.5-0.4
			c0.2,0,0.4,0.1,0.4,0.4c0,0.3-0.2,0.5-0.5,0.8c-0.5,0.4-1.4,0.6-2.5,0.6c-1.9,0-2.9-0.8-2.9-2.3v-2.3c0-0.5,0.2-1,0.6-1.4
			c0.5-0.5,1.3-0.8,2.4-0.8c1.9,0,2.8,1,2.8,2.8c0,0.5-0.2,0.7-0.5,0.7L68.6,32.2L68.6,32.2z M68.6,31.3h4.1c0-1.2-0.7-1.9-2.1-1.9
			c-0.5,0-1,0.1-1.4,0.3c-0.4,0.3-0.6,0.6-0.6,1V31.3z"/>
		<path class="st0" d="M75.1,32.7v-3.6c0-1.9,1-2.8,3-2.8c0.8,0,1.4,0.2,2,0.5c0.6,0.4,0.9,1,0.9,1.8c0,0.4-0.2,0.5-0.4,0.5
			c-0.2,0-0.4-0.2-0.4-0.5c-0.1-0.3-0.2-0.5-0.3-0.8c-0.3-0.4-0.8-0.7-1.7-0.7c-0.8,0-1.3,0.2-1.6,0.5c-0.3,0.3-0.4,0.9-0.4,1.7v3
			c0,0.8,0.2,1.3,0.5,1.7c0.3,0.4,0.9,0.6,1.6,0.6c1.1,0,1.8-0.4,1.9-1.2c0.1-0.3,0.1-0.4,0.1-0.4c0.1-0.2,0.2-0.3,0.3-0.3
			c0.3,0,0.4,0.2,0.4,0.5c0,0.7-0.3,1.3-0.9,1.7c-0.5,0.3-1.1,0.5-1.9,0.5c-0.9,0-1.7-0.2-2.2-0.6C75.3,34.3,75.1,33.6,75.1,32.7z"
			/>
		<path class="st0" d="M86.9,34.6c-0.4,0.3-0.8,0.5-1,0.6c-0.3,0.1-0.7,0.2-1.1,0.2c-0.7,0-1.3-0.2-1.7-0.4
			c-0.5-0.3-0.8-0.9-0.8-1.5s0.3-1.2,0.8-1.6c0.5-0.3,1.1-0.5,1.8-0.5c0.6,0,1.2,0.1,2,0.4v-1c0-0.5-0.2-0.8-0.7-1
			c-0.3-0.2-0.7-0.2-1.2-0.2c-1.1,0-1.7,0.3-1.8,0.9c-0.1,0.3-0.1,0.4-0.1,0.4c-0.1,0.2-0.2,0.2-0.4,0.2c-0.3,0-0.5-0.2-0.5-0.5
			c0-0.4,0.2-0.9,0.5-1.2c0.4-0.5,1.2-0.7,2.3-0.7c0.9,0,1.5,0.2,1.9,0.4c0.5,0.3,0.8,0.9,0.8,1.7v3c0,0.3,0.1,0.6,0.2,0.7
			c0,0,0.2,0.1,0.4,0.2c0.2,0.1,0.2,0.2,0.2,0.4c0,0.2-0.1,0.4-0.4,0.4c-0.1,0-0.2-0.1-0.4-0.1c-0.3-0.1-0.5-0.2-0.6-0.2
			C87.1,35,87,34.8,86.9,34.6z M86.9,33.7v-1.2c-0.6-0.2-1.3-0.3-1.8-0.3c-1.2,0-1.9,0.4-1.9,1.2c0,0.4,0.2,0.8,0.5,0.9
			c0.3,0.2,0.7,0.3,1.1,0.3c0.4,0,0.8-0.1,1.1-0.2C86.2,34.2,86.5,34,86.9,33.7z"/>
		<path class="st0" d="M90.1,29.3c0.2-0.3,0.4-0.4,0.5-0.5c0.2-0.1,0.4-0.2,0.7-0.2c0.5,0,0.9,0.2,1.2,0.7c0.3-0.3,0.4-0.5,0.6-0.5
			c0.2-0.1,0.5-0.2,0.8-0.2c1,0,1.5,0.5,1.5,1.4v4.7c0,0.4-0.2,0.6-0.4,0.6c-0.3,0-0.4-0.2-0.4-0.6v-4.4c0-0.6-0.3-0.9-0.8-0.9
			c-0.4,0-0.8,0.2-1.1,0.6v4.7c0,0.4-0.2,0.6-0.4,0.6c-0.3,0-0.4-0.2-0.4-0.6v-4.3c0-0.6-0.3-1-0.8-1c-0.3,0-0.7,0.2-1,0.6v4.7
			c0,0.4-0.2,0.6-0.4,0.6c-0.3,0-0.4-0.2-0.4-0.6v-5.7c0-0.3,0.1-0.4,0.3-0.4c0.1,0,0.2,0.1,0.3,0.3C90.1,29,90.1,29.2,90.1,29.3z"
			/>
		<path class="st0" d="M97.7,29.3c0.6-0.5,1.4-0.7,2.3-0.7c1.8,0,2.6,0.8,2.6,2.2v2.4c0,0.7-0.3,1.2-0.8,1.6
			c-0.4,0.4-1.1,0.5-1.8,0.5c-0.9,0-1.7-0.2-2.4-0.7v2.7c0,0.4-0.2,0.6-0.4,0.6c-0.3,0-0.4-0.2-0.4-0.6v-8.2c0-0.4,0.1-0.6,0.3-0.6
			c0.1,0,0.2,0.1,0.3,0.3C97.6,29.1,97.7,29.2,97.7,29.3z M97.7,33.7c0.6,0.5,1.3,0.8,2.2,0.8c0.5,0,1-0.1,1.3-0.3
			c0.4-0.3,0.6-0.6,0.6-1v-2.4c0-0.5-0.2-0.9-0.6-1.1c-0.3-0.2-0.8-0.3-1.3-0.3c-0.5,0-0.9,0.1-1.2,0.2c-0.3,0.1-0.6,0.4-1,0.8
			L97.7,33.7L97.7,33.7z"/>
		<path class="st0" d="M104.9,30.3h4.1v-3.4c0-0.4,0.2-0.6,0.4-0.6c0.3,0,0.4,0.2,0.4,0.6V35c0,0.3-0.2,0.5-0.4,0.5
			c-0.3,0-0.4-0.2-0.4-0.5v-3.9h-4.1v3.8c0,0.3-0.2,0.5-0.4,0.5c-0.3,0-0.4-0.2-0.4-0.5V27c0-0.5,0.2-0.8,0.4-0.8
			c0.3,0,0.4,0.2,0.4,0.7V30.3z"/>
		<path class="st0" d="M111.3,33.2v-2.4c0-1.4,1-2.2,2.9-2.2c1.9,0,2.9,0.8,2.9,2.2v2.4c0,1.4-1,2.2-2.9,2.2
			C112.3,35.4,111.3,34.7,111.3,33.2z M116.3,33.2v-2.4c0-0.9-0.7-1.3-2.1-1.3c-1.3,0-2,0.4-2,1.3v2.4c0,0.9,0.7,1.3,2.1,1.3
			C115.6,34.5,116.3,34.1,116.3,33.2z"/>
		<path class="st0" d="M119.5,29.5c0.4-0.3,0.8-0.5,1.1-0.6c0.3-0.1,0.7-0.2,1.2-0.2c1.7,0,2.6,0.8,2.6,2.2v4c0,0.4-0.2,0.6-0.4,0.6
			c-0.3,0-0.4-0.2-0.4-0.6v-4c0-0.5-0.2-0.8-0.4-1s-0.8-0.3-1.4-0.3c-0.5,0-0.9,0.1-1.2,0.3c-0.3,0.1-0.6,0.3-1.1,0.7v4.4
			c0,0.4-0.2,0.6-0.4,0.6c-0.3,0-0.4-0.2-0.4-0.6v-5.7c0-0.3,0.1-0.5,0.4-0.5c0.2,0,0.3,0.1,0.3,0.3
			C119.4,29.1,119.4,29.3,119.5,29.5z"/>
		<path class="st0" d="M130.7,34.7c-0.6,0.5-1.3,0.7-2.3,0.7c-1.8,0-2.7-0.7-2.7-2.1v-2.4c0-1.4,0.9-2.2,2.8-2.2
			c0.5,0,0.9,0.1,1.2,0.2c0.3,0.1,0.6,0.3,1,0.6c0.1-0.5,0.3-0.8,0.5-0.8c0.2,0,0.4,0.2,0.4,0.5v6.4c0,1.7-1,2.5-2.9,2.5
			c-0.5,0-1-0.1-1.4-0.3c-0.6-0.3-1-0.5-1-0.9c0-0.3,0.1-0.4,0.4-0.4c0.1,0,0.3,0.1,0.7,0.4c0.4,0.3,0.9,0.4,1.4,0.4
			c0.9,0,1.5-0.2,1.8-0.7C130.7,36.3,130.7,35.7,130.7,34.7z M130.7,33.8v-3.4c-0.5-0.6-1.1-0.9-2-0.9c-1.3,0-2,0.4-2,1.3v2.4
			c0,0.9,0.6,1.4,1.9,1.4c0.5,0,0.9-0.1,1.2-0.2C130,34.3,130.3,34.1,130.7,33.8z"/>
		<path class="st0" d="M134,32.8v2.1c0,0.3-0.2,0.5-0.4,0.5s-0.4-0.2-0.4-0.5v-8.2c0-0.3,0.2-0.4,0.4-0.4s0.4,0.2,0.4,0.5v4.8l4.1-5
			c0.1-0.2,0.3-0.2,0.4-0.2c0.3,0,0.4,0.1,0.4,0.4c0,0.1-0.1,0.3-0.2,0.4l-2.8,3.5l3.2,4.3c0.1,0.1,0.1,0.2,0.1,0.3
			c0,0.1-0.1,0.2-0.1,0.3c-0.1,0.1-0.2,0.1-0.3,0.1c-0.2,0-0.3-0.1-0.4-0.2l-3.1-4.1L134,32.8z"/>
		<path class="st0" d="M140.4,33.2v-2.4c0-1.4,1-2.2,2.9-2.2s2.9,0.8,2.9,2.2v2.4c0,1.4-1,2.2-2.9,2.2
			C141.3,35.4,140.4,34.7,140.4,33.2z M145.4,33.2v-2.4c0-0.9-0.7-1.3-2.1-1.3c-1.3,0-2,0.4-2,1.3v2.4c0,0.9,0.7,1.3,2.1,1.3
			C144.7,34.5,145.4,34.1,145.4,33.2z"/>
		<path class="st0" d="M148.6,29.5c0.4-0.3,0.8-0.5,1.1-0.6c0.3-0.1,0.7-0.2,1.2-0.2c1.7,0,2.6,0.8,2.6,2.2v4c0,0.4-0.2,0.6-0.4,0.6
			s-0.4-0.2-0.4-0.6v-4c0-0.5-0.2-0.8-0.4-1c-0.3-0.2-0.8-0.3-1.4-0.3c-0.5,0-0.9,0.1-1.2,0.3c-0.3,0.1-0.6,0.3-1.1,0.7v4.4
			c0,0.4-0.2,0.6-0.4,0.6s-0.4-0.2-0.4-0.6v-5.7c0-0.3,0.1-0.5,0.4-0.5c0.2,0,0.3,0.1,0.3,0.3C148.5,29.1,148.5,29.3,148.6,29.5z"/>
		<path class="st0" d="M159.8,34.7c-0.6,0.5-1.3,0.7-2.3,0.7c-1.8,0-2.7-0.7-2.7-2.1v-2.4c0-1.4,0.9-2.2,2.8-2.2
			c0.5,0,0.9,0.1,1.2,0.2c0.3,0.1,0.6,0.3,1,0.6c0.1-0.5,0.3-0.8,0.5-0.8c0.2,0,0.4,0.2,0.4,0.5v6.4c0,1.7-1,2.5-2.9,2.5
			c-0.5,0-1-0.1-1.4-0.3c-0.6-0.3-1-0.5-1-0.9c0-0.3,0.1-0.4,0.4-0.4c0.1,0,0.3,0.1,0.7,0.4c0.4,0.3,0.9,0.4,1.4,0.4
			c0.9,0,1.5-0.2,1.8-0.7C159.7,36.3,159.8,35.7,159.8,34.7z M159.8,33.8v-3.4c-0.5-0.6-1.1-0.9-2-0.9c-1.3,0-2,0.4-2,1.3v2.4
			c0,0.9,0.6,1.4,1.9,1.4c0.5,0,0.9-0.1,1.2-0.2C159,34.3,159.4,34.1,159.8,33.8z"/>
		<path class="st0" d="M163.5,31.9c0-1.8,0.6-3.4,1.9-4.9c0.5-0.5,0.8-0.8,1.1-0.8c0.1,0,0.2,0.1,0.3,0.1c0.1,0.1,0.1,0.2,0.1,0.2
			c0,0.1-0.2,0.4-0.5,0.6c-1.3,1.3-2,2.8-2,4.7c0,2.1,0.7,3.8,2,5.1c0.3,0.3,0.4,0.5,0.4,0.6c0,0.1-0.1,0.2-0.1,0.3
			c-0.1,0.1-0.2,0.1-0.3,0.1c-0.3,0-0.8-0.4-1.3-1.1C164.1,35.6,163.5,33.9,163.5,31.9z"/>
		<path class="st0" d="M181.1,32.4c0,1.8-0.6,3.4-1.9,4.9c-0.5,0.5-0.8,0.8-1.1,0.8c-0.1,0-0.2-0.1-0.3-0.1
			c-0.1-0.1-0.1-0.2-0.1-0.3c0-0.1,0.2-0.4,0.5-0.6c1.3-1.3,2-2.8,2-4.7c0-2.1-0.7-3.8-2-5.1c-0.3-0.3-0.4-0.5-0.4-0.6
			c0-0.1,0.1-0.2,0.1-0.3c0.1-0.1,0.2-0.1,0.3-0.1c0.3,0,0.8,0.4,1.3,1.1C180.6,28.8,181.1,30.4,181.1,32.4z"/>
	</g>
	<path id="XMLID_15_" class="st0" d="M176.7,38H168c-0.2,0-0.3-0.1-0.3-0.3v-0.2c0-0.2,0.1-0.3,0.3-0.3h8.6c0.2,0,0.3,0.1,0.3,0.3
		v0.2C177,37.9,176.8,38,176.7,38z"/>
</g>
</svg>
